<svg xmlns="http://www.w3.org/2000/svg" width="691.25" height="641.14" viewBox="0 0 691.25 641.14">
  <defs>
    <style>
      .cls-1 {
        fill: #393738;
      }
    </style>
  </defs>
  <title>bicycle</title>
  <g id="Layer_2" data-name="Layer 2">
    <g id="图层_1" data-name="图层 1">
      <g id="_Group_" data-name="&lt;Group&gt;">
        <g id="_Group_2" data-name="&lt;Group&gt;">
          <path id="_Compound_Path_" data-name="&lt;Compound Path&gt;" class="cls-1" d="M135.2,641.14c74.85,0,136-61.1,136-136a133.86,133.86,0,0,0-36.66-92.42c12.22-21.39,22.91-45.83,29-74.85a211.73,211.73,0,0,0,26,50.41c4.58,6.11,9.17,11.46,13.75,16.8l34.37,160.4a7.44,7.44,0,0,0,7.64,6.11H346c3.82-.76,6.87-3.82,6.87-7.64l-3.82-121.45a339.15,339.15,0,0,0,72.56,36.66,140.64,140.64,0,0,0-2.29,25.21c0,74.85,61.1,136,136,136s136-61.1,136-136-61.1-136-136-136c-61.1,0-113,40.48-129.85,95.48-29.79-11.46-55-25.21-76.38-41.25V412L502.28,343.6c19.1-11.46,10.24-40.84,10.24-63l-10-111.34c0-23.68-20.73-64.08-33.49-57.46-12.2,6.33-26.73,24.31-35.14,35l-86.31,94.85-84.78,17.57c-3.82.76-6.11,4.58-6.11,8.4,0,.76.76,2.29.76,3.06-.76.76-.76,1.53-.76,3.06,0,.76-.76,7.64-.76,18.33a263.15,263.15,0,0,1-32.08,110A132.84,132.84,0,0,0,136,369.22c-74.85,0-136,61.1-136,136C-.76,580,60.35,641.14,135.2,641.14ZM436.14,484.55c34.37,12.22,74.09,21.39,117.63,27.5,3.82.76,8.4-2.29,8.4-6.11.76-3.82-2.29-8.4-6.11-8.4Q490.75,488.37,439.2,470c15.28-49.65,61.1-85.55,115.34-85.55,66.45,0,120.68,54.23,120.68,120.68S621,625.86,554.53,625.86,433.85,571.63,433.85,505.18C434.61,498.3,434.61,491.43,436.14,484.55Zm-165-210,85.57-6c1.53,0,6.09,6.75,7.62,5.22l72.56-90.83v110.4L302.48,370.75c-.76.76-2.29,1.53-2.29,3.06-22.91-33.61-28.26-65.69-29-84C271.16,285.2,271.16,279.85,271.16,274.51Zm-136,110A120.25,120.25,0,0,1,215.4,415c-35.9,57.29-83.26,83.26-84,83.26-3.82,2.29-5.35,6.87-3.06,10.69a8,8,0,0,0,6.87,3.82,6.89,6.89,0,0,0,3.82-.76c.76-.76,49.65-27.5,87.84-85.55,18.33,21.39,29.79,48.88,29.79,78.67,0,66.45-54.23,120.68-120.68,120.68S14.52,571.63,14.52,505.18,68.75,384.5,135.2,384.5Z"/>
        </g>
        <polyline id="_Path_" data-name="&lt;Path&gt;" class="cls-1" points="468.99 114.07 455.6 80.6 420.13 97.34 433.85 0 468.99 0 478.17 114.07"/>
        <polyline id="_Path_2" data-name="&lt;Path&gt;" class="cls-1" points="341.49 567 288.12 602.03 320.07 599.98 348.36 567"/>
        <path id="_Path_3" data-name="&lt;Path&gt;" class="cls-1" d="M263.79,276.2s-56.5,23.33-66.58-36.57l-10.08-59.9h5.53Z"/>
      </g>
    </g>
  </g>
</svg>
